PathFileType	4	(X/Y/Z)
DataRate	CameraRate	NumFrames	NumMarkers	Units	OrigDataRate	OrigDataStartFrame	OrigNumFrames	
  120.0	  120.0	    4	     64	     mm	  120.0	      30	    239
Frame#	Time	LASI			RASI			LPSI			RPSI			RTH1			RTH2			RTH3			RLFC			RMFC			LTH1			LTH2			LTH3			LLFC			LMFC			RTB1			RTB2			RTB3			RLMAL			RMMAL			LTB1			LTB2			LTB3			LMMAL			LLMAL			RCAL			RTOE			RMT5			LCAL			LTOE			LMT5			LACR			RACR			CLAV			C7			LASH			LPSH			RASH			RPSH			RUA1			RUA2			RUA3			RLEL			RMEL			LUA1			LUA2			LUA3			LLEL			LMEL			RFAsuperior			RFAradius			RFAulna			LFAsuperior			LFAradius			LFAulna			RHJC			LHJC			RKJC			LKJC			RAJC			LAJC			RSJC			LSJC			REJC			LEJC			
		X1	Y1	Z1	X2	Y2	Z2	X3	Y3	Z3	X4	Y4	Z4	X5	Y5	Z5	X6	Y6	Z6	X7	Y7	Z7	X8	Y8	Z8	X9	Y9	Z9	X10	Y10	Z10	X11	Y11	Z11	X12	Y12	Z12	X13	Y13	Z13	X14	Y14	Z14	X15	Y15	Z15	X16	Y16	Z16	X17	Y17	Z17	X18	Y18	Z18	X19	Y19	Z19	X20	Y20	Z20	X21	Y21	Z21	X22	Y22	Z22	X23	Y23	Z23	X24	Y24	Z24	X25	Y25	Z25	X26	Y26	Z26	X27	Y27	Z27	X28	Y28	Z28	X29	Y29	Z29	X30	Y30	Z30	X31	Y31	Z31	X32	Y32	Z32	X33	Y33	Z33	X34	Y34	Z34	X35	Y35	Z35	X36	Y36	Z36	X37	Y37	Z37	X38	Y38	Z38	X39	Y39	Z39	X40	Y40	Z40	X41	Y41	Z41	X42	Y42	Z42	X43	Y43	Z43	X44	Y44	Z44	X45	Y45	Z45	X46	Y46	Z46	X47	Y47	Z47	X48	Y48	Z48	X49	Y49	Z49	X50	Y50	Z50	X51	Y51	Z51	X52	Y52	Z52	X53	Y53	Z53	X54	Y54	Z54	X55	Y55	Z55	X56	Y56	Z56	X57	Y57	Z57	X58	Y58	Z58	X59	Y59	Z59	X60	Y60	Z60	X61	Y61	Z61	X62	Y62	Z62	X63	Y63	Z63	X64	Y64	Z64	

30	0.24167	609.79004	1099.40967	-624.78589	753.82190	1106.94617	-404.35327	508.99155	1134.19397	-449.76211	551.76343	1132.22290	-377.42270	721.73315	941.46686	-307.63800	747.46814	830.42548	-327.90781	661.17590	726.20178	-289.24594	682.49622	551.14264	-292.02707	584.62659	531.93451	-367.17413	502.44745	895.27655	-629.13007	534.07343	766.74383	-642.49622	462.18887	665.45599	-585.56323	466.50754	563.83740	-593.83661	515.69391	549.85883	-480.17551	665.52594	416.89389	-354.99429	690.47412	355.65713	-282.72284	667.40271	250.06885	-345.61762	662.40918	124.58783	-286.70486	625.53363	130.86675	-358.71866	512.23822	428.61850	-573.81958	457.29108	347.89743	-609.38940	508.12100	228.99431	-575.07019	502.81192	127.38975	-529.35455	449.12668	124.72866	-589.58350	581.98645	99.34680	-289.17261	742.40790	57.56167	-437.27799	773.72382	54.43256	-324.63687	422.57223	97.35661	-518.99963	630.07428	63.46436	-615.28949	533.83698	53.30528	-680.31757	491.90521	1603.59522	-568.84705	668.82587	1604.14807	-322.62015	668.72900	1551.33740	-471.27695	543.76489	1600.97717	-412.03952	552.72931	1560.52002	-593.59784	424.79761	1541.62048	-546.66559	714.78955	1560.79456	-364.99417	620.98212	1553.16272	-273.34268	714.31622	1571.79907	-235.40492	792.13794	1541.10498	-218.39706	760.89343	1509.40002	-156.45061	878.12921	1501.06812	-65.32184	877.30945	1428.13403	-100.16024	425.80292	1575.05896	-630.37805	432.64539	1557.46484	-692.60309	373.11993	1485.15698	-669.24982	306.12430	1489.97888	-835.49426	325.79678	1412.53687	-826.57495	957.19940	1545.23499	-126.79879	1087.98901	1543.34595	-252.08350	1118.00830	1566.00244	-190.89922	386.04657	1523.08191	-884.21429	551.25037	1514.79810	-966.66431	510.33804	1524.71631	-1026.15027	670.44422	1032.30742	-396.27026	574.17622	1030.25399	-550.91718	633.56140	541.53857	-329.60060	491.10072	556.84811	-537.00606	643.97141	127.72729	-322.71176	475.96930	126.05920	-559.46902	667.88583	1556.97864	-319.16843	488.76346	1551.07025	-570.13171	877.71933	1464.60107	-82.74104	315.96054	1451.25787	-831.03461	
31	0.25000	609.75720	1099.41711	-624.81256	753.80670	1106.93921	-404.32785	508.97995	1134.18420	-449.76257	551.76392	1132.22693	-377.43594	721.73309	941.46686	-307.63809	747.46289	830.41254	-327.93280	661.15637	726.21771	-289.23871	682.47229	551.13232	-292.03705	584.62378	531.95917	-367.19110	502.42624	895.25964	-629.12994	534.04010	766.74481	-642.48047	462.15420	665.46826	-585.54706	466.47540	563.84424	-593.81867	515.71356	549.88861	-480.15967	665.54504	416.89664	-355.02072	690.46246	355.63513	-282.70239	667.86731	250.38910	-346.89380	662.38568	124.61115	-286.69611	625.51453	130.86708	-358.70703	512.23822	428.61883	-573.81982	457.26785	347.89902	-609.38135	508.11136	229.01431	-575.09515	502.88388	127.39886	-529.35498	449.10852	124.72802	-589.58490	581.98602	99.33643	-289.16119	742.37647	57.55843	-437.27325	773.70648	54.43643	-324.62665	422.59598	97.34514	-519.02057	630.07208	63.46172	-615.31079	533.81793	53.30718	-680.30920	491.90109	1603.59912	-568.82398	668.81476	1604.16834	-322.57382	668.71796	1551.35999	-471.23218	543.76465	1600.97717	-412.03937	552.67792	1560.54053	-593.51917	424.82413	1541.61316	-546.65308	714.51251	1560.79639	-364.37054	620.96973	1553.11340	-273.33728	714.33954	1571.76563	-235.39066	792.16083	1541.06018	-218.38649	760.86414	1509.40796	-156.43077	878.20013	1501.06531	-65.26502	877.31781	1428.10254	-100.17370	425.78601	1575.11780	-630.37238	432.66370	1557.51111	-692.59460	373.10300	1485.25720	-669.25134	306.11002	1490.04163	-835.49396	325.82654	1412.58704	-826.58368	957.19190	1545.14282	-126.85271	1087.97302	1543.26489	-252.10049	1118.00757	1565.96887	-190.90469	386.05194	1523.15210	-884.26025	551.31555	1514.87854	-966.68762	510.29187	1524.77820	-1026.11877	670.42446	1032.30010	-396.27849	574.15400	1030.25972	-550.92385	633.54803	541.54575	-329.61407	491.09448	556.86642	-536.98917	643.95010	127.73912	-322.70157	475.99620	126.06344	-559.46994	667.74112	1556.95490	-318.85391	488.75102	1551.07684	-570.08612	877.75897	1464.58392	-82.71936	315.96828	1451.31433	-831.03882	
32	0.25833	609.75549	1099.38135	-624.82306	753.79004	1106.93225	-404.43402	508.98010	1134.18628	-449.76236	551.76141	1132.23108	-377.44067	721.75085	941.46271	-307.65015	747.46271	830.41217	-327.93347	661.17657	726.20160	-289.24545	682.47284	551.13306	-292.03537	584.62775	531.97717	-367.19101	502.41199	895.26453	-629.15613	534.05463	766.75671	-642.48169	462.13925	665.45172	-585.54120	466.48126	563.83368	-593.83362	515.69391	549.85901	-480.17545	665.49988	416.89621	-355.05487	690.48004	355.64288	-282.70761	667.43091	250.10757	-345.71750	662.42224	124.61764	-286.68738	625.48480	130.87981	-358.73416	512.23450	428.61780	-573.81909	457.26520	347.88037	-609.36621	508.10922	228.99106	-575.08417	502.82336	127.41029	-529.35382	449.11682	124.73570	-589.58484	581.98401	99.33116	-289.14844	742.44391	57.60014	-437.32047	773.74085	54.44390	-324.63226	422.59863	97.32770	-519.01904	630.06103	63.44326	-615.25617	533.81995	53.30606	-680.31451	491.89911	1603.59937	-568.81079	668.81976	1604.16419	-322.54071	668.67737	1551.31836	-471.21396	543.78742	1600.96094	-412.01318	552.72308	1560.53430	-593.55304	424.92096	1541.63171	-546.65686	714.54382	1560.67676	-364.43851	620.95715	1553.14294	-273.27686	714.30890	1571.75378	-235.36630	792.15839	1541.01746	-218.37538	760.86414	1509.38513	-156.42117	878.22754	1500.98889	-65.26276	877.40765	1428.02637	-100.21358	425.80472	1575.16785	-630.32275	432.68689	1557.54553	-692.55005	373.05966	1485.31531	-669.21722	306.14182	1490.12085	-835.45044	325.80987	1412.66528	-826.57556	957.20374	1545.13245	-126.86912	1087.95654	1543.23584	-252.09055	1118.02405	1565.90869	-190.86180	386.03558	1523.20776	-884.21222	551.28760	1514.88953	-966.69385	510.30350	1524.82678	-1026.13013	670.43976	1032.29726	-396.31870	574.12365	1030.23923	-550.93494	633.55029	541.55512	-329.61319	491.08759	556.84634	-537.00453	643.95352	127.74872	-322.71077	475.97009	126.07299	-559.46933	667.75049	1556.90985	-318.85768	488.82202	1551.08301	-570.10495	877.81760	1464.50763	-82.73817	315.97584	1451.39307	-831.01300	
33	0.26667	609.74390	1099.36438	-624.79559	753.77026	1106.94922	-404.34787	508.97293	1134.18262	-449.78232	551.76276	1132.24280	-377.43210	721.74902	941.44605	-307.66748	747.46289	830.41242	-327.93295	661.16730	726.19165	-289.27179	682.52057	551.14557	-291.97092	584.60193	531.93445	-367.20618	502.38702	895.26446	-629.14172	534.03900	766.75482	-642.53742	462.13925	665.45166	-585.54120	466.47208	563.84973	-593.83484	515.67981	549.88245	-480.13715	665.52325	416.89438	-354.99835	690.51587	355.61066	-282.75687	667.39081	250.05267	-345.57568	662.40491	124.60358	-286.67780	625.50299	130.85066	-358.71402	512.22266	428.62784	-573.78223	457.24213	347.88211	-609.35815	508.10828	228.99521	-575.06097	502.83878	127.38962	-529.34338	449.07901	124.71745	-589.56567	582.01160	99.32678	-289.15588	742.44568	57.68387	-437.48453	773.73462	54.40347	-324.62729	422.57706	97.33958	-519.00574	630.06195	63.44316	-615.28272	533.82977	53.31858	-680.32098	491.89877	1603.64197	-568.77649	668.80914	1604.12988	-322.53650	668.68054	1551.32080	-471.15652	543.79047	1600.95789	-411.96893	552.70715	1560.57519	-593.53839	424.88855	1541.65430	-546.63757	714.54633	1560.68347	-364.41248	620.95068	1552.98059	-273.49969	714.31885	1571.69922	-235.36159	792.17364	1540.98962	-218.32538	760.90784	1509.32495	-156.47098	878.24512	1500.93152	-65.30402	877.40979	1427.95154	-100.20321	425.80133	1575.16309	-630.31183	432.67560	1557.57837	-692.55005	373.05878	1485.41138	-669.17200	306.15738	1490.16846	-835.45038	325.80926	1412.71936	-826.58209	957.23755	1545.08691	-126.76453	1087.98230	1543.18774	-252.08666	1118.02075	1565.82349	-190.92780	386.05972	1523.30115	-884.18335	551.22852	1514.95569	-966.66156	510.26666	1524.90564	-1026.07031	670.41133	1032.31190	-396.26197	574.12985	1030.22882	-550.89967	633.56125	541.54001	-329.58855	491.07594	556.86609	-536.98599	643.95395	127.72712	-322.69591	475.95889	126.05354	-559.45453	667.74851	1556.83203	-318.95609	488.79785	1551.11475	-570.08798	877.82745	1464.44153	-82.75362	315.98332	1451.44391	-831.01624	
